PathFileType	4	(X/Y/Z)	C:\Users\Basilio\Documents\Thesis Gigler\squatting_fais\c3dfiles\075\SLS_front_pre5\markers_experimental.trc
DataRate	CameraRate	NumFrames	NumMarkers	Units	OrigDataRate	OrigDataStartFrame	OrigNumFrames
200.000000	200.000000	4	61	mm	200.000000	1022	1363
Frame#	Time	FHD			LBHD			C7			T10			CLAV			LSHO			LUUPA			LMUPA			LDUPA			LLEP			LMEP			LRAD			LUL			LRFIN			RSHO			RUPA1			RMUPA			RDUPA			RLEP			RMEP			RRAD			RUL			RUFIN			RASI			USACR			LSACR			RSACR			LTHI1			LTHI2			LTHI3			LTHI4			LLFC			LMFC			LTIB1			LTIB2			LTIB3			LTIB4			LLMAL			LMMAL			LHEE			LMT1			LMT2			LMT5			RTHI			RTHI2			RTHI3			RTHI4			RLFC			RMFC			RTIB1			RTIB2			RTIB3			RTIB4			RLMAL			RMMAL			RHEE			RMT1			RMT2			RMT5			LASI			RBHD			
		X1	Y1	Z1	X2	Y2	Z2	X3	Y3	Z3	X4	Y4	Z4	X5	Y5	Z5	X6	Y6	Z6	X7	Y7	Z7	X8	Y8	Z8	X9	Y9	Z9	X10	Y10	Z10	X11	Y11	Z11	X12	Y12	Z12	X13	Y13	Z13	X14	Y14	Z14	X15	Y15	Z15	X16	Y16	Z16	X17	Y17	Z17	X18	Y18	Z18	X19	Y19	Z19	X20	Y20	Z20	X21	Y21	Z21	X22	Y22	Z22	X23	Y23	Z23	X24	Y24	Z24	X25	Y25	Z25	X26	Y26	Z26	X27	Y27	Z27	X28	Y28	Z28	X29	Y29	Z29	X30	Y30	Z30	X31	Y31	Z31	X32	Y32	Z32	X33	Y33	Z33	X34	Y34	Z34	X35	Y35	Z35	X36	Y36	Z36	X37	Y37	Z37	X38	Y38	Z38	X39	Y39	Z39	X40	Y40	Z40	X41	Y41	Z41	X42	Y42	Z42	X43	Y43	Z43	X44	Y44	Z44	X45	Y45	Z45	X46	Y46	Z46	X47	Y47	Z47	X48	Y48	Z48	X49	Y49	Z49	X50	Y50	Z50	X51	Y51	Z51	X52	Y52	Z52	X53	Y53	Z53	X54	Y54	Z54	X55	Y55	Z55	X56	Y56	Z56	X57	Y57	Z57	X58	Y58	Z58	X59	Y59	Z59	X60	Y60	Z60	X61	Y61	Z61	

1023	5.11	-240.0498504638672	1734.9052734375	-877.3586425781252	-373.0445556640626	1600.525024414063	-941.3818359375002	-396.3092651367189	1488.038818359375	-889.9131469726565	-413.4982299804689	1166.181030273438	-879.877624511719	-251.8695526123047	1432.31201171875	-874.5388183593752	-271.4881591796876	1464.818115234375	-1022.318603515625	-177.0451965332032	1297.098510742188	-1129.7900390625	-135.6357727050782	1304.2978515625	-1103.572265625	-122.0576858520508	1255.811279296875	-1137.872436523438	-52.04132461547853	1205.336059570313	-1129.77294921875	-102.7404327392578	1150.8203125	-1076.646606445313	nan	nan	nan	135.2389526367188	1181.520141601563	-960.8760986328127	134.9755249023438	1220.177368164063	-859.1896972656252	-303.0755920410157	1459.864379882813	-728.8483886718751	-229.1100006103516	1290.671508789063	-610.6628417968751	-183.2830352783203	1294.505737304688	-627.7467651367189	-178.7054443359375	1243.342407226563	-594.2666015625001	-121.7142791748047	1200.537109375	-589.7050170898439	-143.678207397461	1138.597778320313	-637.9386596679689	77.48935699462892	1217.043334960938	-781.3572387695315	102.6553344726563	1190.63818359375	-713.5014038085939	162.0465240478516	1228.4951171875	-808.0325317382815	-260.1003417968751	997.3602294921877	-749.2162475585939	-413.1942138671876	1060.5322265625	-881.3651123046877	-418.2254638671876	1028.511352539063	-909.0726318359377	-419.2904663085939	1029.732788085938	-852.1229248046877	-263.2764282226563	763.7666625976564	-1097.4873046875	-217.7891540527344	692.3941040039064	-1103.806762695313	-174.0520172119141	703.4712524414064	-1082.944091796875	-234.2715148925782	634.5741577148439	-1103.445922851563	-224.0227203369141	527.6561279296876	-1106.260986328125	-186.2576141357422	502.7915344238282	-982.3325195312502	-173.9494781494141	402.4927978515626	-1084.39599609375	-235.0095214843751	373.0726928710938	-1139.04248046875	-195.0438232421876	361.6688537597657	-1119.506591796875	-205.2955017089844	279.1030273437501	-1099.282958984375	-290.1819152832032	145.3912048339844	-1135.4931640625	-265.0403442382813	150.741683959961	-1052.975341796875	-351.9610900878907	119.5459823608399	-1099.358642578125	-157.746078491211	56.14923095703126	-1055.032592773438	-148.0920867919922	57.8183937072754	-1103.122802734375	-185.7645721435547	47.49528503417969	-1157.118408203125	-328.0567932128907	793.6914672851565	-691.2409057617189	-291.2756652832032	739.5855712890626	-690.4204711914064	-258.9165039062501	744.7303466796876	-699.0734252929689	-321.2158508300782	659.1825561523439	-702.6458129882814	-340.7886352539063	506.6222229003907	-733.2820434570314	-296.7655334472657	496.9735717773439	-854.8428344726565	-292.8416748046876	356.8692016601563	-794.4147949218752	-349.2507934570313	282.1457214355469	-739.5245361328126	-310.7265014648438	275.4763183593751	-768.8061523437502	-320.8964538574219	230.9315948486329	-805.584655761719	-395.6849060058595	111.2477188110352	-774.8923950195315	-362.9193420410157	136.537109375	-853.3182373046877	-447.0580444335939	92.7704315185547	-835.4860839843752	-241.7646026611329	56.53197479248048	-823.4221801757815	-247.7532196044922	54.1944046020508	-781.376647949219	-289.6844482421876	33.69805145263673	-733.4209594726564	-253.5378723144532	998.5044555664065	-1003.600646972656	-335.3195190429688	1642.564331054688	-788.6517333984377	
1024	5.115	-239.2903594970704	1734.637084960938	-878.6647949218752	-371.8563842773438	1600.210205078125	-942.9590454101565	-395.2223510742189	1487.76025390625	-891.8708496093752	-412.0643615722657	1165.711669921875	-881.9096679687502	-250.7902526855469	1432.09765625	-876.0257568359377	-269.9454345703126	1464.349975585938	-1024.383911132813	-177.8888092041016	1294.381591796875	-1131.678955078125	-136.7057342529297	1301.126831054688	-1105.757080078125	-123.543930053711	1252.129028320313	-1139.72900390625	-54.78097534179689	1200.668212890625	-1131.792114257813	-106.2219619750977	1147.201171875	-1078.340942382813	nan	nan	nan	131.8878173828125	1174.453369140625	-962.300964355469	131.8905181884766	1213.379516601563	-860.3823242187502	-302.3300781250001	1459.427001953125	-730.2261962890626	-230.6359100341797	1288.072265625	-612.4496459960939	-184.561996459961	1291.40673828125	-629.1145629882814	-181.0119323730469	1240.104370117188	-595.5637207031251	-124.6919708251953	1196.31103515625	-591.3444824218751	-147.4487915039063	1134.956420898438	-640.0384521484376	74.86128234863283	1211.4775390625	-782.5935058593752	99.73917388916018	1184.367553710938	-714.8262939453126	159.1901550292969	1221.487426757813	-809.2600708007815	-258.5837402343751	997.305114746094	-750.7711791992189	-411.5198974609376	1060.382080078125	-883.199645996094	-416.5150146484376	1028.338989257813	-910.8800048828127	-417.5916442871095	1029.596923828125	-854.0167236328127	-263.6044311523438	762.4625854492189	-1098.329223632813	-218.812728881836	690.3210449218751	-1104.576293945313	-175.1283721923828	701.1921386718751	-1084.082885742188	-236.7705230712891	633.0536499023439	-1104.136962890625	-227.3875274658204	525.9638671875001	-1106.66748046875	-189.41259765625	501.016082763672	-982.6934814453127	-176.8300476074219	400.6471252441407	-1084.640625	-237.4760894775391	371.0652160644532	-1139.328735351563	-197.6669921875001	359.8517456054688	-1119.5595703125	-207.722640991211	277.2749633789063	-1099.595581054688	-293.2729797363282	143.3176879882813	-1135.85986328125	-267.2419433593751	148.7498474121094	-1053.203125	-353.6134338378907	116.4787368774414	-1099.641723632813	-158.6398468017578	55.92435455322267	-1055.165405273438	-149.0103302001953	57.55414199829103	-1102.9814453125	-186.6896209716797	46.33757400512696	-1157.272705078125	-326.8352050781251	793.817565917969	-692.6045532226564	-290.0781860351563	739.7986450195314	-691.7545166015626	-257.7402954101563	744.7972412109376	-700.2106933593751	-320.1204528808594	659.3963623046876	-703.6929321289064	-340.1768493652344	506.667694091797	-734.0001220703126	-296.0596008300782	496.7583923339845	-855.5319824218752	-292.2780456542969	356.7881774902344	-794.8071289062502	-348.9427795410157	282.2704162597657	-739.8121948242189	-310.4620361328126	275.4335021972657	-769.1472167968752	-320.5289916992188	230.8404693603516	-805.824157714844	-395.6907043457032	111.3080596923828	-774.979675292969	-362.8911437988282	136.5365753173828	-853.4927368164065	-447.085662841797	92.83877563476564	-835.4961547851565	-241.5394744873047	56.93780517578126	-823.325866699219	-247.7964782714844	53.97949600219728	-781.5452880859377	-289.6711730957032	33.68012237548829	-733.3975830078126	-252.3090820312501	997.9739379882815	-1005.777221679688	-334.6957397460938	1642.214599609375	-790.1057739257815	
1025	5.12	-238.5046844482422	1734.435913085938	-879.9292602539065	-370.9775085449219	1600.007080078125	-944.7188110351565	-394.142303466797	1487.624755859375	-893.7493286132815	-410.5269775390626	1165.394165039063	-883.9472656250002	-249.6609954833985	1431.856323242188	-877.6362915039065	-268.7865295410157	1463.979736328125	-1026.661743164063	-178.79296875	1291.87939453125	-1133.461669921875	-136.9199829101563	1297.783935546875	-1107.583251953125	-125.376205444336	1248.58056640625	-1141.632446289063	-57.23984909057619	1196.095703125	-1133.713623046875	-109.4027557373047	1143.43017578125	-1080.051635742188	nan	nan	nan	128.310531616211	1167.3876953125	-963.3506469726565	129.5066528320313	1207.250854492188	-862.318786621094	-301.5951843261719	1458.953247070313	-731.6770019531251	-232.0697937011719	1285.72265625	-614.0361328125001	-185.7772369384766	1288.301879882813	-630.5355834960939	-183.1611328125	1236.926879882813	-597.6160278320314	-127.6001815795899	1192.123657226563	-592.9105224609376	-151.1557159423828	1131.252319335938	-642.1452026367189	71.98970794677736	1206.311401367188	-783.881530761719	96.74378967285159	1178.2060546875	-716.2158813476564	156.9324035644532	1214.818237304688	-811.0164184570315	-257.0801086425782	997.319519042969	-752.3180541992189	-409.8123474121095	1060.150756835938	-885.142517089844	-414.562957763672	1027.998657226563	-913.014343261719	-415.9039611816407	1029.5029296875	-855.9509887695315	-264.1846923828126	761.1954956054689	-1099.347412109375	-220.4056701660157	688.6361083984376	-1105.59033203125	-176.4422912597657	698.8464965820314	-1085.05908203125	-238.9680786132813	631.5476074218751	-1104.6748046875	-230.1748199462891	524.0837402343751	-1106.91552734375	-192.7654876708985	499.1760559082032	-982.9595336914065	-179.749755859375	398.888397216797	-1084.810180664063	-239.8735504150391	369.6095581054688	-1139.76416015625	-199.8941192626954	358.3994445800782	-1119.996826171875	-210.737289428711	275.4305419921876	-1100.105102539063	-294.2391357421876	140.5677947998047	-1135.827026367188	-269.3955078125001	146.6938171386719	-1053.524169921875	-355.5076599121094	113.7336959838867	-1099.691772460938	-159.3419036865235	55.47164535522462	-1055.258544921875	-149.749755859375	57.10639953613283	-1102.995849609375	-187.3743896484375	45.56181335449219	-1157.537109375	-325.6227111816407	793.9621582031252	-693.9808959960939	-288.8768615722657	739.8485717773439	-692.8942871093751	-256.5446777343751	744.7721557617189	-701.5981445312501	-319.0614929199219	659.5535888671876	-704.8838500976564	-339.3469543457032	506.7449951171876	-734.8235473632814	-294.9621276855469	496.4497680664064	-856.5424804687502	-291.7381286621094	356.6181640625001	-795.3114013671877	-348.6524963378907	282.4042053222657	-740.1783447265626	-310.2594909667969	275.4361267089844	-769.5881347656252	-320.3401794433594	230.8068237304688	-806.0833740234377	-395.6884765625001	111.3960876464844	-775.0511474609377	-362.9046630859376	136.4988861083985	-853.5718994140627	-447.0529785156251	92.82579803466798	-835.502136230469	-241.5617980957032	56.92240142822267	-823.3248291015627	-247.8232727050782	53.95326232910158	-781.6043701171877	-289.6668395996094	33.66192245483399	-733.3989257812501	-250.4299926757813	997.2329101562502	-1007.115905761719	-333.8179016113282	1641.849975585938	-792.0867919921877	
1026	5.125	-237.7220611572266	1734.230102539063	-881.3717041015627	-369.7997436523438	1599.470825195313	-946.2722778320315	-392.982391357422	1487.385498046875	-895.5254516601565	-408.9981079101564	1165.003295898438	-886.0410766601565	-248.4334259033204	1431.691162109375	-879.0530395507815	-267.1155090332032	1463.579956054688	-1028.801513671875	-179.6899566650391	1289.267822265625	-1135.21435546875	-138.0126495361328	1294.641357421875	-1109.858276367188	-126.8405456542969	1244.964233398438	-1143.657592773438	-59.76409912109376	1191.458129882813	-1135.672607421875	-112.3877563476563	1139.705932617188	-1081.586059570313	nan	nan	nan	124.7036972045899	1160.447631835938	-964.8217773437502	125.8735046386719	1200.551147460938	-863.787048339844	-300.8999023437501	1458.56494140625	-733.1654663085939	-233.4844818115235	1283.209350585938	-615.7113037109376	-187.1835174560547	1285.193115234375	-632.0767211914064	-185.7111968994141	1233.64306640625	-599.0482788085939	-130.7692565917969	1187.890991210938	-594.7161865234376	-155.088623046875	1127.632690429688	-644.2045288085939	69.39617919921876	1200.845581054688	-785.122253417969	93.46431732177736	1171.844482421875	-717.6855468750001	153.9648742675782	1207.818969726563	-812.2869262695315	-255.5775909423829	997.1809692382815	-754.0565185546876	-408.1739501953126	1059.976318359375	-887.1707153320315	-412.6867065429689	1027.763671875	-914.9861450195315	-414.2082519531251	1029.35302734375	-857.8900146484377	-264.3757934570313	759.9838867187501	-1100.422119140625	-221.9543457031251	686.8865966796876	-1106.495849609375	-177.4250946044922	696.8037719726564	-1086.33984375	-240.6435852050782	629.9551391601564	-1105.254638671875	-233.1098785400391	522.3446655273439	-1107.1806640625	-195.976547241211	497.3958435058595	-983.2714843750002	-182.9155731201172	397.4474182128907	-1085.191284179688	-242.5805206298829	367.3680114746094	-1139.98583984375	-202.7703857421876	356.2257080078126	-1119.9365234375	-212.2803039550782	273.6893615722657	-1099.693359375	-295.8860168457032	138.1580047607422	-1135.8212890625	-270.6001281738282	144.6526794433594	-1053.401733398438	-356.8807067871094	110.6428756713867	-1099.706176757813	-159.8740844726563	54.76329421997072	-1055.452392578125	-150.4056091308594	56.45643234252931	-1103.082763671875	-187.7954254150391	44.78852462768555	-1157.599975585938	-324.3345336914063	794.181823730469	-695.4230957031251	-287.7291870117188	739.9851074218751	-694.1080932617189	-255.4621276855469	744.8462524414064	-702.7311401367189	-318.0871276855469	659.6428222656251	-706.0030517578126	-338.6082458496094	506.8829650878907	-735.6240234375001	-294.0465698242188	496.2313842773439	-857.0015869140627	-290.9472656250001	356.5157775878907	-795.497253417969	-348.2972717285157	282.4758300781251	-740.6154785156251	-309.9260864257813	275.4110107421876	-769.910583496094	-320.0036926269532	230.7654113769532	-806.268249511719	-395.660369873047	111.4890289306641	-775.1389160156252	-362.8583374023438	136.4083251953125	-853.6472778320315	-447.0784301757814	92.82716369628908	-835.501647949219	-241.5525665283204	56.91756439208986	-823.3033447265627	-247.8176727294922	53.94001388549806	-781.5955810546877	-289.6594848632813	33.67673873901368	-733.3955078125001	-248.3670501708985	996.6960449218752	-1008.908569335938	-333.0268249511719	1641.479248046875	-793.7299804687502	
